<svg id="SvgjsSvg1001" width="288" height="288" xmlns="http://www.w3.org/2000/svg" version="1.1" xmlns:xlink="http://www.w3.org/1999/xlink" xmlns:svgjs="http://svgjs.com/svgjs"><defs id="SvgjsDefs1002"/><g id="SvgjsG1008"><svg xmlns="http://www.w3.org/2000/svg" viewBox="0 0 32 32" width="288" height="288"><g transform="translate(0 -1020.798)"><path d="M31 1031.362s-6.94 7-15.5 7c-8.56 0-15.5-7-15.5-7s6.94-7 15.5-7c8.56 0 15.5 7 15.5 7z" opacity=".15"/><path fill="#482ff7" d="M32 1031.362s-6.94 7-15.5 7c-8.56 0-15.5-7-15.5-7s6.94-7 15.5-7c8.56 0 15.5 7 15.5 7z" class="colore9eded svgShape"/><path fill-rule="evenodd" d="M15 1023.862c-4.158 0-7.547 3.331-7.547 7.436 0 3.937 3.122 7.153 7.047 7.408v2.252a1.5 1.5 0 0 0-1 1.432v8.322a1.5 1.5 0 1 0 3 0v-8.322a1.5 1.5 0 0 0-1-1.432v-2.252c3.925-.255 7.047-3.47 7.047-7.408 0-4.105-3.39-7.436-7.547-7.436zm0 1c3.626 0 6.547 2.88 6.547 6.436 0 3.535-2.89 6.398-6.488 6.43a.5.5 0 0 0-.067 0 .5.5 0 0 0-.05 0c-3.6-.032-6.489-2.895-6.489-6.43 0-3.555 2.92-6.436 6.547-6.436z" color="#000" font-family="sans-serif" font-weight="400" opacity=".15" overflow="visible" style="line-height:normal;text-indent:0;text-align:start;text-decoration-line:none;text-decoration-style:solid;text-decoration-color:#000;text-transform:none;block-progression:tb;isolation:auto;mix-blend-mode:normal"/><path d="M22.5 1031.361c0 3.864-3.148 7.001-7.02 7.001-3.874 0-6.98-3.137-6.98-7s3.106-7 6.98-7c3.872 0 7.02 3.137 7.02 7z" opacity=".15"/><path fill="#f0ed42" d="M23.5 1031.361c0 3.864-3.148 7.001-7.02 7.001-3.874 0-6.98-3.137-6.98-7s3.106-7 6.98-7c3.872 0 7.02 3.137 7.02 7z" class="colorf05542 svgShape"/><path fill="none" stroke="#f3f169" stroke-dashoffset=".5" stroke-linecap="round" stroke-linejoin="round" d="M11.187 1029.939a5.5 5.5 0 0 1 5.313-4.077" color="#000" overflow="visible" style="isolation:auto;mix-blend-mode:normal" class="colorStrokef17f53 svgStroke"/><path fill="#46c3db" fill-rule="evenodd" d="M15.976 1040.87a1.5 1.5 0 0 0-1.476 1.52v8.322a1.5 1.5 0 1 0 3 0v-8.322a1.5 1.5 0 0 0-1.524-1.52z" color="#000" font-family="sans-serif" font-weight="400" overflow="visible" style="line-height:normal;text-indent:0;text-align:start;text-decoration-line:none;text-decoration-style:solid;text-decoration-color:#000;text-transform:none;block-progression:tb;isolation:auto;mix-blend-mode:normal" class="color4bbfeb svgShape"/><path fill="#259cb3" fill-rule="evenodd" stroke="#4bd1eb" stroke-linecap="round" stroke-linejoin="round" d="M16 1038.23v4.161" class="color25b39e svgShape colorStroke4bbfeb svgStroke"/><ellipse style="isolation:auto;mix-blend-mode:normal" cx="16" cy="1031.296" fill="none" stroke="#4bd1eb" stroke-linecap="round" stroke-linejoin="round" color="#000" overflow="visible" rx="7.047" ry="6.934" class="colorStroke4bbfeb svgStroke"/><path fill="none" stroke="#2d6cdf" stroke-dasharray="1 2" stroke-linecap="round" stroke-linejoin="round" d="M13.138 1040.455a9.652 9.5 0 0 1-6.764-10.405 9.652 9.5 0 0 1 9.398-8.186 9.652 9.5 0 0 1 9.67 7.872 9.652 9.5 0 0 1-6.406 10.622" color="#000" overflow="visible" style="isolation:auto;mix-blend-mode:normal" class="colorStroke34485c svgStroke"/></g></svg></g></svg>